<?xml version="1.0" encoding="utf-8"?>
<svg viewBox="0 120.6 24 24" xmlns="http://www.w3.org/2000/svg">
  <path d="M 9.581 132.974 L 7.181 132.974 L 7.181 135.373 L 4.782 135.373 L 4.782 132.974 L 2.383 132.974 L 2.383 130.575 L 4.782 130.575 L 4.782 128.175 L 7.181 128.175 L 7.181 130.575 L 9.581 130.575 L 9.581 132.974 Z M 17.979 133.574 C 17.979 132.579 17.176 131.774 16.179 131.774 C 15.184 131.774 14.38 132.579 14.38 133.574 C 14.38 134.569 15.184 135.373 16.179 135.373 C 17.176 135.373 17.979 134.569 17.979 133.574 Z M 21.578 129.975 C 21.578 128.978 20.775 128.175 19.778 128.175 C 18.783 128.175 17.979 128.978 17.979 129.975 C 17.979 130.97 18.783 131.774 19.778 131.774 C 20.775 131.774 21.578 130.97 21.578 129.975 Z M 17.943 124.756 L 12.544 127.791 L 11.957 128.116 L 11.369 127.791 L 5.969 124.756 L 1.183 127.443 L 1.183 135.158 L 11.957 141.204 L 22.73 135.158 L 22.73 127.443 L 17.943 124.756 M 17.943 123.376 L 23.93 126.735 L 23.93 135.853 L 11.957 142.572 L -0.017 135.853 L -0.017 126.735 L 5.969 123.376 L 11.957 126.735 L 17.943 123.376 Z" style="fill: rgb(255, 255, 255);"/>
</svg>