<?xml version="1.0" encoding="utf-8"?>
<svg viewBox="0 120.6 24 24" xmlns="http://www.w3.org/2000/svg">
  <path d="M 15.922 130.23 C 15.922 131.527 15.124 132.217 14.363 132.895 C 13.733 133.454 13.138 133.966 12.983 134.799 L 12.936 135.037 L 10.853 135.037 L 10.888 134.704 C 11.056 133.312 11.841 132.609 12.637 132.002 C 13.256 131.527 13.839 131.087 13.839 130.23 C 13.839 129.622 13.566 129.076 13.091 128.696 C 12.614 128.326 11.996 128.195 11.401 128.35 C 10.698 128.528 10.151 129.147 9.984 129.943 L 9.926 130.277 L 7.842 130.277 L 7.914 129.778 C 8.152 128.112 9.283 126.768 10.793 126.363 C 12.043 126.018 13.34 126.267 14.338 127.042 C 15.351 127.803 15.922 128.969 15.922 130.23 Z M 11.924 139.796 C 12.578 139.796 13.113 139.26 13.113 138.607 C 13.113 137.952 12.578 137.416 11.924 137.416 C 11.269 137.416 10.734 137.952 10.734 138.607 C 10.734 139.26 11.269 139.796 11.924 139.796 Z M 11.924 121.948 C 6.023 121.948 1.216 126.755 1.216 132.657 C 1.216 138.559 6.023 143.366 11.924 143.366 C 17.826 143.366 22.633 138.559 22.633 132.657 C 22.633 126.755 17.826 121.948 11.924 121.948 M 11.924 120.758 C 18.492 120.758 23.822 126.088 23.822 132.657 C 23.822 139.226 18.492 144.556 11.924 144.556 C 5.356 144.556 0.026 139.226 0.026 132.657 C 0.026 126.088 5.356 120.758 11.924 120.758 Z" style="fill: rgb(255, 255, 255);"/>
</svg>