<?xml version="1.0" encoding="utf-8"?>
<svg viewBox="0 120.6 24 24" xmlns="http://www.w3.org/2000/svg">
  <path d="M 11.766 120.789 L 11.766 134.704 C 10.683 133.458 9.096 132.657 7.316 132.657 C 4.037 132.657 1.381 135.313 1.381 138.592 C 1.381 141.87 4.037 144.525 7.316 144.525 C 10.594 144.525 13.249 141.87 13.249 138.592 L 13.249 126.722 L 22.152 126.722 L 22.152 120.789 L 11.766 120.789 Z M 7.316 143.042 C 4.853 143.042 2.864 141.054 2.864 138.592 C 2.864 136.129 4.853 134.14 7.316 134.14 C 9.778 134.14 11.766 136.129 11.766 138.592 C 11.766 141.054 9.778 143.042 7.316 143.042 Z M 20.668 125.239 L 13.249 125.239 L 13.249 122.272 L 20.668 122.272 L 20.668 125.239 Z" style="fill: rgb(255, 255, 255);"/>
</svg>