<?xml version="1.0" encoding="utf-8"?>
<svg viewBox="0 120.6 24 24" xmlns="http://www.w3.org/2000/svg">
  <path d="M 23.454 143.802 L 16.142 136.49 C 17.542 134.882 18.392 132.788 18.392 130.5 C 18.392 125.437 14.298 121.343 9.235 121.343 C 4.173 121.343 0.079 125.437 0.079 130.5 C 0.079 135.562 4.173 139.656 9.235 139.656 C 11.524 139.656 13.618 138.806 15.226 137.419 L 22.539 144.731 L 23.454 143.802 Z M 9.235 138.348 C 4.905 138.348 1.387 134.828 1.387 130.5 C 1.387 126.169 4.905 122.651 9.235 122.651 C 13.566 122.651 17.084 126.169 17.084 130.5 C 17.084 134.828 13.566 138.348 9.235 138.348 Z" style="fill: rgb(255, 255, 255);"/>
</svg>