<?xml version="1.0" encoding="utf-8"?>
<svg viewBox="0 120.6 24 24" xmlns="http://www.w3.org/2000/svg">
  <path d="M 12.177 129.666 C 13.828 129.666 15.168 131.006 15.168 132.657 C 15.168 134.308 13.828 135.648 12.177 135.648 C 10.527 135.648 9.186 134.308 9.186 132.657 C 9.186 131.006 10.527 129.666 12.177 129.666 M 12.177 128.469 C 9.868 128.469 7.99 130.348 7.99 132.657 C 7.99 134.966 9.868 136.845 12.177 136.845 C 14.487 136.845 16.365 134.966 16.365 132.657 C 16.365 130.348 14.487 128.469 12.177 128.469 Z M 13.637 121.889 L 14.295 124.52 L 14.451 125.131 L 15.049 125.347 C 15.779 125.621 16.473 126.016 17.107 126.518 L 17.586 126.901 L 18.184 126.734 L 20.78 125.993 L 22.24 128.517 L 20.289 130.419 L 19.847 130.85 L 19.943 131.46 C 20.002 131.844 20.038 132.226 20.038 132.634 C 20.038 133.04 20.002 133.423 19.943 133.806 L 19.847 134.416 L 20.289 134.847 L 22.24 136.748 L 20.78 139.274 L 18.184 138.532 L 17.586 138.365 L 17.107 138.747 C 16.473 139.262 15.779 139.657 15.049 139.919 L 14.451 140.135 L 14.295 140.745 L 13.637 143.425 L 10.718 143.425 L 10.059 140.794 L 9.903 140.183 L 9.306 139.967 C 8.588 139.693 7.893 139.298 7.248 138.784 L 6.769 138.4 L 6.17 138.568 L 3.575 139.31 L 2.127 136.774 L 4.077 134.87 L 4.52 134.439 L 4.423 133.83 C 4.363 133.447 4.328 133.052 4.328 132.657 C 4.328 132.261 4.363 131.867 4.423 131.484 L 4.52 130.875 L 4.077 130.444 L 2.127 128.54 L 3.587 126.016 L 6.182 126.758 L 6.781 126.926 L 7.26 126.543 C 7.893 126.016 8.588 125.621 9.318 125.358 L 9.916 125.144 L 10.071 124.533 L 10.718 121.889 L 13.637 121.889 M 14.57 120.691 L 9.785 120.691 L 8.899 124.234 C 8.026 124.556 7.224 125.023 6.506 125.598 L 3.012 124.605 L 0.619 128.744 L 3.24 131.294 C 3.167 131.736 3.131 132.19 3.131 132.657 C 3.131 133.124 3.167 133.579 3.24 134.02 L 0.619 136.57 L 3.012 140.709 L 6.506 139.716 C 7.224 140.291 8.026 140.758 8.899 141.08 L 9.785 144.623 L 14.57 144.623 L 15.456 141.08 C 16.329 140.758 17.13 140.291 17.848 139.716 L 21.342 140.709 L 23.736 136.57 L 21.115 134.02 C 21.188 133.579 21.223 133.124 21.223 132.657 C 21.223 132.19 21.188 131.736 21.115 131.294 L 23.736 128.744 L 21.342 124.605 L 17.848 125.598 C 17.13 125.023 16.329 124.556 15.456 124.234 L 14.57 120.691 Z" style="fill: rgb(255, 255, 255);"/>
</svg>