<?xml version="1.0" encoding="utf-8"?>
<svg viewBox="0 120.6 24 24" xmlns="http://www.w3.org/2000/svg">
  <path d="M 18.953 124.232 L 18.953 120.703 L 4.835 120.703 L 4.835 124.232 L 1.306 124.232 L 1.306 131.291 L 5.106 133.185 C 5.929 136.126 8.6 138.29 11.8 138.338 L 7.188 140.703 L 7.188 144.232 L 16.6 144.232 L 16.6 140.703 L 11.988 138.338 C 15.188 138.29 17.859 136.126 18.682 133.185 L 22.482 131.291 L 22.482 124.232 L 18.953 124.232 Z M 4.835 131.738 L 2.483 130.562 L 2.483 125.408 L 4.835 125.408 L 4.835 131.738 Z M 15.423 143.056 L 8.365 143.056 L 8.365 141.42 L 11.894 139.609 L 15.423 141.42 L 15.423 143.056 Z M 17.776 131.291 C 17.776 134.538 15.141 137.173 11.894 137.173 C 8.647 137.173 6.012 134.538 6.012 131.291 L 6.012 121.879 L 17.776 121.879 L 17.776 131.291 Z M 21.306 130.562 L 18.953 131.738 L 18.953 125.408 L 21.306 125.408 L 21.306 130.562 Z" style="fill: rgb(255, 255, 255);"/>
</svg>