<?xml version="1.0" encoding="utf-8"?>
<svg viewBox="0 120.6 24 24" xmlns="http://www.w3.org/2000/svg">
  <g transform="matrix(1.5, 0, 0, 1.342282, -5.973873, 116.408539)">
    <path d="M4 21V10.08l8-6.96 8 6.96V21h-6v-6h-4v6H4z" style="fill: rgb(255, 255, 255);"/>
  </g>
  <path d="M 9.67 140.63 L 9.67 132.63 L 15.67 136.63 L 9.67 140.63 Z M 18.07 120.63 L 6.07 120.63 L 6.07 121.963 L 18.07 121.963 L 18.07 120.63 Z M 21.67 124.63 L 2.47 124.63 L 2.47 125.963 L 21.67 125.963 L 21.67 124.63 Z M 24.07 128.63 L 0.07 128.63 L 0.07 144.63 L 24.07 144.63 L 24.07 128.63 Z M 1.27 129.963 L 22.87 129.963 L 22.87 143.297 L 1.27 143.297 L 1.27 129.963 Z" style="fill: rgb(255, 255, 255);"/>
</svg>