<?xml version="1.0" encoding="utf-8"?>
<svg viewBox="0 120.6 24 24" xmlns="http://www.w3.org/2000/svg">
  <path d="M 19.696 122.827 L 19.696 134.336 C 19.696 139.118 15.997 143.006 11.45 143.006 C 6.903 143.006 3.204 139.118 3.204 134.324 L 3.204 134.171 C 3.204 132.922 3.463 131.662 3.934 130.531 C 4.523 129.129 5.454 127.928 6.608 127.032 C 7.61 126.255 8.764 125.69 9.989 125.089 C 10.448 124.865 10.896 124.641 11.344 124.406 C 11.768 124.182 12.192 123.958 12.616 123.746 L 12.616 127.539 L 14.442 126.314 L 19.696 122.827 M 20.873 120.624 L 13.806 125.336 L 13.806 121.802 C 12.804 122.321 11.803 122.839 10.802 123.369 C 9.141 124.241 7.386 124.947 5.89 126.102 C 4.559 127.127 3.51 128.517 2.851 130.072 C 2.309 131.356 2.026 132.769 2.026 134.171 L 2.026 134.336 C 2.026 139.778 6.243 144.184 11.45 144.184 C 16.656 144.184 20.873 139.778 20.873 134.336 L 20.873 120.624 Z M 8.446 133.452 L 13.806 130.048 L 13.806 136.762 C 13.806 138.906 12.227 140.65 10.272 140.65 C 8.316 140.65 6.738 138.918 6.738 136.762 C 6.738 135.361 7.421 134.136 8.446 133.452 Z" style="fill: rgb(255, 255, 255);"/>
</svg>