<?xml version="1.0" encoding="utf-8"?>
<svg viewBox="0 120.6 24 24" xmlns="http://www.w3.org/2000/svg">
  <path d="M 14.393 133.972 L 10.833 133.972 L 10.833 137.532 L 8.46 137.532 L 8.46 133.972 L 4.9 133.972 L 4.9 131.598 L 8.46 131.598 L 8.46 128.038 L 10.833 128.038 L 10.833 131.598 L 14.393 131.598 L 14.393 133.972 Z M 17.953 125.665 L 1.34 125.665 L 1.34 139.905 L 17.953 139.905 L 17.953 132.322 L 22.7 134.493 L 22.7 128.703 L 17.953 130.875 L 17.953 125.665 M 19.14 124.478 L 19.14 129.023 L 23.887 126.851 L 23.887 136.345 L 19.14 134.174 L 19.14 141.092 L 0.153 141.092 L 0.153 124.478 L 19.14 124.478 Z" style="fill: rgb(255, 255, 255);"/>
</svg>