<?xml version="1.0" encoding="utf-8"?>
<svg viewBox="0 120.6 24 24" xmlns="http://www.w3.org/2000/svg">
  <path d="M 12.557 120.767 C 10.364 120.767 8.594 122.577 8.594 124.823 L 8.594 132.565 C 8.594 134.812 10.364 136.621 12.557 136.621 C 14.75 136.621 16.521 134.812 16.521 132.565 L 16.521 124.823 C 16.521 122.577 14.75 120.767 12.557 120.767 Z M 21.145 132.658 L 19.824 132.658 C 19.824 136.661 16.56 139.925 12.557 139.925 C 8.553 139.925 5.29 136.661 5.29 132.658 L 3.969 132.658 C 3.969 136.939 7.127 140.493 11.236 141.127 L 11.236 144.549 L 13.878 144.549 L 13.878 141.127 C 17.987 140.493 21.145 136.939 21.145 132.658 Z" style="fill: rgb(255, 255, 255);"/>
</svg>