<?xml version="1.0" encoding="utf-8"?>
<svg viewBox="0 120.6 24 24" xmlns="http://www.w3.org/2000/svg">
  <path d="M 15.565 138.39 L 9.683 134.744 L 9.683 126.613 L 12.05 126.613 L 12.05 133.43 L 16.82 136.377 L 15.565 138.39 Z M 12.05 121.88 C 6.18 121.88 1.399 126.661 1.399 132.531 C 1.399 138.401 6.18 143.182 12.05 143.182 C 17.921 143.182 22.701 138.401 22.701 132.531 C 22.701 126.661 17.921 121.88 12.05 121.88 M 12.05 120.696 C 18.583 120.696 23.885 125.998 23.885 132.531 C 23.885 139.064 18.583 144.366 12.05 144.366 C 5.517 144.366 0.215 139.064 0.215 132.531 C 0.215 125.998 5.517 120.696 12.05 120.696 Z" style="fill: rgb(255, 255, 255);"/>
</svg>