<?xml version="1.0" encoding="utf-8"?>
<svg viewBox="0 120.6 24 24" xmlns="http://www.w3.org/2000/svg">
  <path d="M 0.014 120.623 L 0.014 144.623 L 24.014 144.623 L 24.014 120.623 L 0.014 120.623 Z M 2.668 143.29 C 3.188 139.797 5.842 136.489 12.013 136.489 C 18.187 136.489 20.84 139.797 21.36 143.29 L 2.668 143.29 Z M 8.014 129.956 C 8.014 127.757 9.814 125.957 12.013 125.957 C 14.214 125.957 16.014 127.757 16.014 129.956 C 16.014 132.156 14.214 133.957 12.013 133.957 C 9.814 133.957 8.014 132.156 8.014 129.956 Z M 12.974 135.196 C 15.453 134.743 17.348 132.57 17.348 129.956 C 17.348 127.01 14.961 124.623 12.013 124.623 C 9.068 124.623 6.681 127.01 6.681 129.956 C 6.681 132.57 8.574 134.743 11.054 135.196 C 5.161 135.53 1.934 138.929 1.348 143.196 L 1.348 121.956 L 22.68 121.956 L 22.68 143.196 C 22.093 138.929 18.867 135.53 12.974 135.196 Z" style="fill: rgb(255, 255, 255);"/>
</svg>