<svg xmlns="http://www.w3.org/2000/svg" viewBox="0 0 96 96" width="96" height="96" preserveAspectRatio="xMidYMid meet" style="width: 100%; height: 100%; transform: translate3d(0px, 0px, 0px);"><defs><clipPath id="__lottie_element_208"><rect width="96" height="96" x="0" y="0"/></clipPath></defs><g clip-path="url(#__lottie_element_208)"><g transform="matrix(1,0,0,1,48,48)" opacity="1" style="display: block;"><g opacity="1" transform="matrix(1,0,0,1,0,0)"/><g opacity="1" transform="matrix(1,0,0,1,0,0)"><path fill="rgb(3,3,3)" fill-opacity="0" d=" M-6.5,26.410999298095703 C-6.5,26.410999298095703 6.5,26.410999298095703 6.5,26.410999298095703 C6.5,29.923999786376953 3.575000047683716,32.79899978637695 0,32.79899978637695 C-3.575000047683716,32.79899978637695 -6.5,29.923999786376953 -6.5,26.410999298095703z M22.75,19.290000915527344 C22.75,19.290000915527344 16.25,13.28600025177002 16.25,13.28600025177002 C16.25,13.28600025177002 16.25,-4.184000015258789 16.25,-4.184000015258789 C16.25,-12.071999549865723 12.381999969482422,-18.107999801635742 6.077000141143799,-20.47100067138672 C1.9819999933242798,-22.163999557495117 -2.502000093460083,-22.06800079345703 -6.4019999504089355,-20.375 C-12.51200008392334,-17.947999954223633 -16.25,-11.944000244140625 -16.25,-4.184000015258789 C-16.25,-4.184000015258789 -16.25,13.28600025177002 -16.25,13.28600025177002 C-16.25,13.28600025177002 -22.75,19.290000915527344 -22.75,19.290000915527344 C-22.75,19.290000915527344 -22.75,20.02400016784668 -22.75,20.02400016784668 C-22.75,20.02400016784668 22.75,20.02400016784668 22.75,20.02400016784668 C22.75,20.02400016784668 22.75,19.290000915527344 22.75,19.290000915527344z M26,17.947999954223633 C26,17.947999954223633 26,23.218000411987305 26,23.218000411987305 C26,23.218000411987305 -26,23.218000411987305 -26,23.218000411987305 C-26,23.218000411987305 -26,17.947999954223633 -26,17.947999954223633 C-26,17.947999954223633 -19.5,11.944000244140625 -19.5,11.944000244140625 C-19.5,11.944000244140625 -19.5,-4.502999782562256 -19.5,-4.502999782562256 C-19.5,-13.829000473022461 -14.430000305175781,-21.173999786376953 -6.5,-23.60099983215332 C-6.5,-23.60099983215332 -6.5,-24.81399917602539 -6.5,-24.81399917602539 C-6.5,-29.349000930786133 -1.6579999923706055,-32.79800033569336 3.2170000076293945,-30.434999465942383 C5.329999923706055,-29.413000106811523 6.5,-27.145000457763672 6.5,-24.81399917602539 C6.5,-24.81399917602539 6.5,-23.569000244140625 6.5,-23.569000244140625 C14.430000305175781,-21.173999786376953 19.5,-13.795999526977539 19.5,-4.4710001945495605 C19.5,-4.4710001945495605 19.5,11.97599983215332 19.5,11.97599983215332 C19.5,11.97599983215332 26,17.947999954223633 26,17.947999954223633z"/><path fill="rgb(255,255,255)" fill-opacity="1" d=" M-6.5,26.410999298095703 C-6.5,26.410999298095703 6.5,26.410999298095703 6.5,26.410999298095703 C6.5,29.923999786376953 3.575000047683716,32.79899978637695 0,32.79899978637695 C-3.575000047683716,32.79899978637695 -6.5,29.923999786376953 -6.5,26.410999298095703z M22.75,19.290000915527344 C22.75,19.290000915527344 16.25,13.28600025177002 16.25,13.28600025177002 C16.25,13.28600025177002 16.25,-4.184000015258789 16.25,-4.184000015258789 C16.25,-12.071999549865723 12.381999969482422,-18.107999801635742 6.077000141143799,-20.47100067138672 C1.9819999933242798,-22.163999557495117 -2.502000093460083,-22.06800079345703 -6.4019999504089355,-20.375 C-12.51200008392334,-17.947999954223633 -16.25,-11.944000244140625 -16.25,-4.184000015258789 C-16.25,-4.184000015258789 -16.25,13.28600025177002 -16.25,13.28600025177002 C-16.25,13.28600025177002 -22.75,19.290000915527344 -22.75,19.290000915527344 C-22.75,19.290000915527344 -22.75,20.02400016784668 -22.75,20.02400016784668 C-22.75,20.02400016784668 22.75,20.02400016784668 22.75,20.02400016784668 C22.75,20.02400016784668 22.75,19.290000915527344 22.75,19.290000915527344z M26,17.947999954223633 C26,17.947999954223633 26,23.218000411987305 26,23.218000411987305 C26,23.218000411987305 -26,23.218000411987305 -26,23.218000411987305 C-26,23.218000411987305 -26,17.947999954223633 -26,17.947999954223633 C-26,17.947999954223633 -19.5,11.944000244140625 -19.5,11.944000244140625 C-19.5,11.944000244140625 -19.5,-4.502999782562256 -19.5,-4.502999782562256 C-19.5,-13.829000473022461 -14.430000305175781,-21.173999786376953 -6.5,-23.60099983215332 C-6.5,-23.60099983215332 -6.5,-24.81399917602539 -6.5,-24.81399917602539 C-6.5,-29.349000930786133 -1.6579999923706055,-32.79800033569336 3.2170000076293945,-30.434999465942383 C5.329999923706055,-29.413000106811523 6.5,-27.145000457763672 6.5,-24.81399917602539 C6.5,-24.81399917602539 6.5,-23.569000244140625 6.5,-23.569000244140625 C14.430000305175781,-21.173999786376953 19.5,-13.795999526977539 19.5,-4.4710001945495605 C19.5,-4.4710001945495605 19.5,11.97599983215332 19.5,11.97599983215332 C19.5,11.97599983215332 26,17.947999954223633 26,17.947999954223633z"/></g></g></g></svg>